<svg id="レイヤー_1" data-name="レイヤー 1" xmlns="http://www.w3.org/2000/svg" viewBox="0 0 281.21 61.15"><defs><style>.cls-1{fill:#fff;}</style></defs><title>logo</title><path d="M79.22,29.36,78,20.78s6.33-1.15,11-1.9l.61-10.61,9,.68s-1.36,6.73-2,9.86c7.48-1,11.83.68,13.47,5.24,2.45,6.74-.14,22.38-5,30.48,0,0-6.6-8.16-9.52-10.89a47.32,47.32,0,0,1,5.17.21c2.24-6.12,4.22-14.56,2.11-17.15s-5.51-1.63-8.71-1A141.35,141.35,0,0,1,85.61,48l-7-3.13a191.81,191.81,0,0,0,8.51-17.55S83.5,28.2,79.22,29.36ZM122,31.41s-6.54-10.9-7.84-12.74l6.67-3.8,7.63,12.32A52.74,52.74,0,0,1,122,31.41Zm49.38-18.1s-4.75,10.79-7.19,16.47c0,0-1.58-5.46-2.45-8.12a141,141,0,0,0-23.23.57l-1-9.06S164.28,12.6,171.33,13.31Zm-4.82,27,.65,10.86a54.4,54.4,0,0,1-28-.57s.94-6.41,2.09-10.73C147,44.22,161.19,43.72,166.51,40.34Zm12.8-20.49A18.61,18.61,0,0,0,176.15,21l-1.37-6.61,4.53-.86Zm2.09-6.46,4.46-.87-.43,6.33A20.31,20.31,0,0,0,182.26,20ZM205,32.72c-3.24-3.31-7.27-5.83-11.73-9.14l4.46-5.32c4.68,2.59,7.34,4.1,12.09,7a55.65,55.65,0,0,0,5.75-15.68l11.08,4.89a74.4,74.4,0,0,1-8.42,16.26s6.62,4.53,10.72,7.55l-6.69,8.56s-6.55-5.11-9.42-7.48c-3.38,4.89-11.22,10.71-25.39,10.86C195.26,45.31,202.23,38.47,205,32.72Zm35.26-6.12L246,21.75l6.46,5.43s-3.68,3.88-6.46,6.59A53.92,53.92,0,0,0,240.23,26.6Zm41-5.11c.39,13.32-8.66,25.4-27.6,30.31L249,42.17C264.07,39.85,273.83,32,281.2,21.49ZM255.87,9.15,262.72,15a88.67,88.67,0,0,1-6.79,6,78.11,78.11,0,0,0-5.56-6.92Z"/><path d="M11.39,51.7,23.8,32.62H37.35L49.75,51.7l3.36-2.19-13-20a2,2,0,0,0-1.68-.91H22.72a2,2,0,0,0-1.68.91l-13,20,3.35,2.19Z"/><path class="cls-1" d="M39.42,33.16c0,3.13-4,5.68-8.85,5.68s-8.84-2.55-8.84-5.68,4-5.68,8.84-5.68S39.42,30,39.42,33.16Z"/><path d="M39.42,33.16h-2a2.12,2.12,0,0,1-.37,1.11A5.27,5.27,0,0,1,34.72,36a10.61,10.61,0,0,1-4.15.81,9.84,9.84,0,0,1-5.17-1.35,4.42,4.42,0,0,1-1.3-1.22,1.87,1.87,0,0,1,0-2.23,5.21,5.21,0,0,1,2.33-1.76,10.39,10.39,0,0,1,4.14-.8,9.77,9.77,0,0,1,5.18,1.34A4.42,4.42,0,0,1,37.05,32a2.12,2.12,0,0,1,.37,1.12h4a6.09,6.09,0,0,0-1-3.32,9.21,9.21,0,0,0-4.08-3.23,14.44,14.44,0,0,0-5.74-1.13,13.64,13.64,0,0,0-7.33,2,8.42,8.42,0,0,0-2.48,2.38,5.85,5.85,0,0,0,0,6.63,9.16,9.16,0,0,0,4.07,3.23,14.69,14.69,0,0,0,5.74,1.14,13.68,13.68,0,0,0,7.34-2,8.17,8.17,0,0,0,2.48-2.38,6.08,6.08,0,0,0,1-3.31Z"/><path d="M30.57,5A25.58,25.58,0,1,1,5,30.57,25.6,25.6,0,0,1,30.57,5m0-5A30.58,30.58,0,1,0,61.15,30.57,30.57,30.57,0,0,0,30.57,0Z"/><path d="M41.67,10.94a7.17,7.17,0,0,1,2.77,2.24,5.24,5.24,0,0,1,0,6.21,7.19,7.19,0,0,1-2.77,2.25,8.79,8.79,0,0,1-3.82.83,9.18,9.18,0,0,1-3.18-.56,8.5,8.5,0,0,1-1.63,1,6.6,6.6,0,0,1-2.56.53.21.21,0,0,1-.21-.15.24.24,0,0,1,0-.26,6.16,6.16,0,0,0,.68-.87,6.21,6.21,0,0,0,1-2,6.19,6.19,0,0,1-1.25-1.81,5,5,0,0,1-.45-2.08,5.14,5.14,0,0,1,1-3.11A7.07,7.07,0,0,1,34,10.94a9.11,9.11,0,0,1,7.64,0Z"/></svg>