<svg id="レイヤー_2" data-name="レイヤー 2" xmlns="http://www.w3.org/2000/svg" xmlns:xlink="http://www.w3.org/1999/xlink" viewBox="0 0 960 936.92"><defs><style>.cls-1{opacity:0.8;}.cls-2{clip-path:url(#clip-path);}.cls-3{fill:#fd352a;}</style><clipPath id="clip-path"/></defs><title>アートボード 2</title><g class="cls-1"><g class="cls-2"><circle class="cls-3" r="7.26"/><circle class="cls-3" cx="41.74" r="7.26"/><circle class="cls-3" cx="83.48" r="7.26"/><circle class="cls-3" cx="125.22" r="7.26"/><circle class="cls-3" cx="166.96" r="7.26"/><circle class="cls-3" cx="208.7" r="7.26"/><circle class="cls-3" cx="250.43" r="7.26"/><circle class="cls-3" cx="292.17" r="7.26"/><circle class="cls-3" cx="333.91" r="7.26"/><circle class="cls-3" cx="375.65" r="7.26"/><circle class="cls-3" cx="417.39" r="7.26"/><circle class="cls-3" cx="459.13" r="7.26"/><circle class="cls-3" cx="500.87" r="7.26"/><circle class="cls-3" cx="542.61" r="7.26"/><circle class="cls-3" cx="584.35" r="7.26"/><path class="cls-3" d="M633.35,0a7.26,7.26,0,0,1-7.26,7.26A7.27,7.27,0,0,1,618.82,0a7.27,7.27,0,0,1,7.27-7.26A7.26,7.26,0,0,1,633.35,0Z"/><circle class="cls-3" cx="667.83" r="7.26"/><circle class="cls-3" cx="709.57" r="7.26"/><path class="cls-3" d="M758.57,0a7.26,7.26,0,0,1-7.27,7.26A7.26,7.26,0,0,1,744,0a7.26,7.26,0,0,1,7.26-7.26A7.26,7.26,0,0,1,758.57,0Z"/><circle class="cls-3" cx="793.04" r="7.26"/><circle class="cls-3" cx="834.78" r="7.26"/><circle class="cls-3" cx="876.52" r="7.26"/><circle class="cls-3" cx="918.26" r="7.26"/><circle class="cls-3" cx="960" r="7.26"/><circle class="cls-3" cx="20.87" cy="35.29" r="7.26"/><circle class="cls-3" cx="62.61" cy="35.29" r="7.26"/><circle class="cls-3" cx="104.35" cy="35.29" r="7.26"/><circle class="cls-3" cx="146.09" cy="35.29" r="7.26"/><circle class="cls-3" cx="187.83" cy="35.29" r="7.26"/><circle class="cls-3" cx="229.57" cy="35.29" r="7.26"/><circle class="cls-3" cx="271.3" cy="35.29" r="7.26"/><circle class="cls-3" cx="313.04" cy="35.29" r="7.26"/><circle class="cls-3" cx="354.78" cy="35.29" r="7.26"/><circle class="cls-3" cx="396.52" cy="35.29" r="7.26"/><circle class="cls-3" cx="438.26" cy="35.29" r="7.26"/><circle class="cls-3" cx="480" cy="35.29" r="7.26"/><circle class="cls-3" cx="521.74" cy="35.29" r="7.26"/><circle class="cls-3" cx="563.48" cy="35.29" r="7.26"/><circle class="cls-3" cx="605.22" cy="35.29" r="7.26"/><circle class="cls-3" cx="646.96" cy="35.29" r="7.26"/><circle class="cls-3" cx="688.7" cy="35.29" r="7.26"/><circle class="cls-3" cx="730.43" cy="35.29" r="7.26"/><circle class="cls-3" cx="772.17" cy="35.29" r="7.26"/><circle class="cls-3" cx="813.91" cy="35.29" r="7.26"/><circle class="cls-3" cx="855.65" cy="35.29" r="7.26"/><circle class="cls-3" cx="897.39" cy="35.29" r="7.26"/><circle class="cls-3" cx="939.13" cy="35.29" r="7.26"/><circle class="cls-3" cy="66.92" r="7.26"/><circle class="cls-3" cx="41.74" cy="66.92" r="7.26"/><circle class="cls-3" cx="83.48" cy="66.92" r="7.26"/><circle class="cls-3" cx="125.22" cy="66.92" r="7.26"/><circle class="cls-3" cx="166.96" cy="66.92" r="7.26"/><circle class="cls-3" cx="208.7" cy="66.92" r="7.26"/><circle class="cls-3" cx="250.43" cy="66.92" r="7.26"/><circle class="cls-3" cx="292.17" cy="66.92" r="7.26"/><circle class="cls-3" cx="333.91" cy="66.92" r="7.26"/><circle class="cls-3" cx="375.65" cy="66.92" r="7.26"/><circle class="cls-3" cx="417.39" cy="66.92" r="7.26"/><circle class="cls-3" cx="459.13" cy="66.92" r="7.26"/><circle class="cls-3" cx="500.87" cy="66.92" r="7.26"/><circle class="cls-3" cx="542.61" cy="66.92" r="7.26"/><circle class="cls-3" cx="584.35" cy="66.92" r="7.26"/><path class="cls-3" d="M633.35,66.92a7.27,7.27,0,1,1-7.26-7.26A7.26,7.26,0,0,1,633.35,66.92Z"/><circle class="cls-3" cx="667.83" cy="66.92" r="7.26"/><circle class="cls-3" cx="709.57" cy="66.92" r="7.26"/><path class="cls-3" d="M758.57,66.92a7.27,7.27,0,1,1-7.27-7.26A7.26,7.26,0,0,1,758.57,66.92Z"/><circle class="cls-3" cx="793.04" cy="66.92" r="7.26"/><circle class="cls-3" cx="834.78" cy="66.92" r="7.26"/><circle class="cls-3" cx="876.52" cy="66.92" r="7.26"/><circle class="cls-3" cx="918.26" cy="66.92" r="7.26"/><circle class="cls-3" cx="960" cy="66.92" r="7.26"/><circle class="cls-3" cx="20.87" cy="102.21" r="7.26"/><circle class="cls-3" cx="62.61" cy="102.21" r="7.26"/><circle class="cls-3" cx="104.35" cy="102.21" r="7.26"/><circle class="cls-3" cx="146.09" cy="102.21" r="7.26"/><circle class="cls-3" cx="187.83" cy="102.21" r="7.26"/><circle class="cls-3" cx="229.57" cy="102.21" r="7.26"/><circle class="cls-3" cx="271.3" cy="102.21" r="7.26"/><circle class="cls-3" cx="313.04" cy="102.21" r="7.26"/><circle class="cls-3" cx="354.78" cy="102.21" r="7.26"/><circle class="cls-3" cx="396.52" cy="102.21" r="7.26"/><circle class="cls-3" cx="438.26" cy="102.21" r="7.26"/><circle class="cls-3" cx="480" cy="102.21" r="7.26"/><circle class="cls-3" cx="521.74" cy="102.21" r="7.26"/><circle class="cls-3" cx="563.48" cy="102.21" r="7.26"/><circle class="cls-3" cx="605.22" cy="102.21" r="7.26"/><circle class="cls-3" cx="646.96" cy="102.21" r="7.26"/><circle class="cls-3" cx="688.7" cy="102.21" r="7.26"/><circle class="cls-3" cx="730.43" cy="102.21" r="7.26"/><circle class="cls-3" cx="772.17" cy="102.21" r="7.26"/><circle class="cls-3" cx="813.91" cy="102.21" r="7.26"/><circle class="cls-3" cx="855.65" cy="102.21" r="7.26"/><circle class="cls-3" cx="897.39" cy="102.21" r="7.26"/><circle class="cls-3" cx="939.13" cy="102.21" r="7.26"/><circle class="cls-3" cy="133.85" r="7.26" transform="matrix(0.63, -0.77, 0.77, 0.63, -103.51, 48.99)"/><circle class="cls-3" cx="41.74" cy="133.85" r="7.26" transform="translate(-98.12 143.72) rotate(-76.72)"/><circle class="cls-3" cx="83.48" cy="133.85" r="7.26" transform="translate(-70.19 98.23) rotate(-45)"/><circle class="cls-3" cx="125.22" cy="133.85" r="7.26" transform="translate(-43.56 62.37) rotate(-23.95)"/><circle class="cls-3" cx="166.96" cy="133.85" r="7.26" transform="translate(-1.57 265.71) rotate(-76.76)"/><circle class="cls-3" cx="208.7" cy="133.85" r="7.26" transform="translate(-34.7 181.04) rotate(-43.65)"/><circle class="cls-3" cx="250.43" cy="133.85" r="7.26" transform="translate(-32.21 106.55) rotate(-22.61)"/><circle class="cls-3" cx="292.17" cy="133.85" r="7.26" transform="translate(-29 122.59) rotate(-22.61)"/><circle class="cls-3" cx="333.91" cy="133.85" r="7.26" transform="translate(121.89 424.46) rotate(-75.73)"/><circle class="cls-3" cx="375.65" cy="133.85" r="7.26" transform="translate(15.38 304.83) rotate(-45)"/><circle class="cls-3" cx="417.39" cy="133.85" r="7.26" transform="translate(-19.38 170.72) rotate(-22.61)"/><circle class="cls-3" cx="459.13" cy="133.85" r="7.26" transform="translate(223.68 550.12) rotate(-76.76)"/><circle class="cls-3" cx="500.87" cy="133.85" r="7.26" transform="translate(52.06 393.37) rotate(-45)"/><circle class="cls-3" cx="542.61" cy="133.85" r="7.26" transform="translate(-9.76 218.85) rotate(-22.61)"/><circle class="cls-3" cx="584.35" cy="133.85" r="7.26" transform="translate(320.22 672) rotate(-76.76)"/><path class="cls-3" d="M633.35,133.85a7.27,7.27,0,1,1-7.26-7.27A7.26,7.26,0,0,1,633.35,133.85Z"/><circle class="cls-3" cx="667.83" cy="133.85" r="7.26" transform="translate(-0.14 266.98) rotate(-22.61)"/><circle class="cls-3" cx="709.57" cy="133.85" r="7.26" transform="translate(3.07 283.03) rotate(-22.61)"/><path class="cls-3" d="M758.57,133.85a7.27,7.27,0,1,1-7.27-7.27A7.26,7.26,0,0,1,758.57,133.85Z"/><circle class="cls-3" cx="793.04" cy="133.85" r="7.26" transform="translate(137.63 599.97) rotate(-45)"/><circle class="cls-3" cx="834.78" cy="133.85" r="7.26" transform="translate(4.12 291.26) rotate(-19.84)"/><circle class="cls-3" cx="876.52" cy="133.85" r="7.26" transform="translate(545.48 956.41) rotate(-76.76)"/><circle class="cls-3" cx="918.26" cy="133.85" r="7.26" transform="translate(174.31 688.51) rotate(-45)"/><circle class="cls-3" cx="960" cy="133.85" r="7.26" transform="translate(2.93 287.26) rotate(-17.04)"/><circle class="cls-3" cx="20.87" cy="169.14" r="7.26" transform="translate(-113.48 64.3) rotate(-45)"/><circle class="cls-3" cx="62.61" cy="169.14" r="7.26" transform="translate(-59.96 36.83) rotate(-22.5)"/><path class="cls-3" d="M111.61,169.14a7.27,7.27,0,1,1-7.26-7.27A7.26,7.26,0,0,1,111.61,169.14Z"/><path class="cls-3" d="M153.35,169.14a7.27,7.27,0,1,1-7.26-7.27A7.26,7.26,0,0,1,153.35,169.14Z"/><circle class="cls-3" cx="187.83" cy="169.14" r="7.26" transform="translate(-50.58 85.19) rotate(-22.61)"/><circle class="cls-3" cx="229.57" cy="169.14" r="7.26" transform="translate(-47.38 101.24) rotate(-22.61)"/><path class="cls-3" d="M278.57,169.14a7.27,7.27,0,1,1-7.27-7.27A7.26,7.26,0,0,1,278.57,169.14Z"/><circle class="cls-3" cx="313.04" cy="169.14" r="7.26" transform="translate(-27.91 270.89) rotate(-45)"/><circle class="cls-3" cx="354.78" cy="169.14" r="7.26" transform="translate(-37.23 140.73) rotate(-21.34)"/><circle class="cls-3" cx="396.52" cy="169.14" r="7.26" transform="translate(141.06 516.38) rotate(-76.76)"/><circle class="cls-3" cx="438.26" cy="169.14" r="7.26" transform="translate(8.77 359.44) rotate(-45)"/><circle class="cls-3" cx="480" cy="169.14" r="7.26" transform="translate(-28.93 169.9) rotate(-19.5)"/><circle class="cls-3" cx="521.74" cy="169.14" r="7.26" transform="translate(237.6 638.27) rotate(-76.76)"/><circle class="cls-3" cx="563.48" cy="169.14" r="7.26" transform="translate(45.44 447.98) rotate(-45)"/><circle class="cls-3" cx="605.22" cy="169.14" r="7.26" transform="translate(-1.17 334.03) rotate(-30.83)"/><circle class="cls-3" cx="646.96" cy="169.14" r="7.26" transform="translate(334.14 760.16) rotate(-76.76)"/><circle class="cls-3" cx="688.7" cy="169.14" r="7.26" transform="translate(53.6 484.68) rotate(-40.22)"/><circle class="cls-3" cx="730.43" cy="169.14" r="7.26" transform="translate(94.34 566.03) rotate(-45)"/><circle class="cls-3" cx="772.17" cy="169.14" r="7.26" transform="translate(-5.69 309.81) rotate(-22.61)"/><circle class="cls-3" cx="813.91" cy="169.14" r="7.26" transform="translate(426.55 904.67) rotate(-73.97)"/><circle class="cls-3" cx="855.65" cy="169.14" r="7.26" transform="translate(131.02 654.58) rotate(-45)"/><circle class="cls-3" cx="897.39" cy="169.14" r="7.26" transform="translate(3.93 357.94) rotate(-22.61)"/><circle class="cls-3" cx="939.13" cy="169.14" r="7.26" transform="translate(559.39 1044.56) rotate(-76.76)"/><circle class="cls-3" cy="200.77" r="7.26" transform="translate(-155.26 73.48) rotate(-50.65)"/><circle class="cls-3" cx="41.74" cy="200.77" r="7.26" transform="translate(-163.25 195.27) rotate(-76.72)"/><circle class="cls-3" cx="83.48" cy="200.77" r="7.26" transform="translate(-117.52 117.83) rotate(-45)"/><circle class="cls-3" cx="125.22" cy="200.77" r="7.26" transform="translate(-70.73 68.13) rotate(-23.95)"/><circle class="cls-3" cx="166.96" cy="200.77" r="7.26" transform="translate(-66.72 317.3) rotate(-76.76)"/><circle class="cls-3" cx="208.7" cy="200.77" r="7.26" transform="translate(-80.89 199.54) rotate(-43.65)"/><circle class="cls-3" cx="250.43" cy="200.77" r="7.26" transform="translate(-57.93 111.69) rotate(-22.61)"/><circle class="cls-3" cx="292.17" cy="200.77" r="7.26" transform="translate(-54.73 127.73) rotate(-22.61)"/><circle class="cls-3" cx="333.91" cy="200.77" r="7.26" transform="translate(57.03 474.89) rotate(-75.73)"/><circle class="cls-3" cx="375.65" cy="200.77" r="7.26" transform="translate(-31.94 324.43) rotate(-45)"/><circle class="cls-3" cx="417.39" cy="200.77" r="7.26" transform="translate(-45.11 175.86) rotate(-22.61)"/><circle class="cls-3" cx="459.13" cy="200.77" r="7.26" transform="translate(158.54 601.71) rotate(-76.76)"/><circle class="cls-3" cx="500.87" cy="200.77" r="7.26" transform="translate(4.74 412.97) rotate(-45)"/><circle class="cls-3" cx="542.61" cy="200.77" r="7.26" transform="translate(-35.49 223.99) rotate(-22.61)"/><circle class="cls-3" cx="584.35" cy="200.77" r="7.26" transform="translate(255.08 723.6) rotate(-76.76)"/><path class="cls-3" d="M633.35,200.77a7.27,7.27,0,1,1-7.26-7.26A7.26,7.26,0,0,1,633.35,200.77Z"/><circle class="cls-3" cx="667.83" cy="200.77" r="7.26" transform="translate(-25.87 272.13) rotate(-22.61)"/><circle class="cls-3" cx="709.57" cy="200.77" r="7.26" transform="translate(-22.66 288.17) rotate(-22.61)"/><path class="cls-3" d="M758.57,200.77a7.27,7.27,0,1,1-7.27-7.26A7.26,7.26,0,0,1,758.57,200.77Z"/><circle class="cls-3" cx="793.04" cy="200.77" r="7.26" transform="translate(90.31 619.57) rotate(-45)"/><circle class="cls-3" cx="834.78" cy="200.77" r="7.26" transform="translate(-18.59 295.23) rotate(-19.84)"/><circle class="cls-3" cx="876.52" cy="200.77" r="7.26" transform="translate(480.33 1008.01) rotate(-76.76)"/><circle class="cls-3" cx="918.26" cy="200.77" r="7.26" transform="translate(126.99 708.11) rotate(-45)"/><circle class="cls-3" cx="960" cy="200.77" r="7.26" transform="translate(-16.68 290.2) rotate(-17.04)"/><circle class="cls-3" cx="20.87" cy="236.06" r="7.26" transform="translate(-160.81 83.9) rotate(-45)"/><circle class="cls-3" cx="62.61" cy="236.06" r="7.26" transform="translate(-85.57 41.93) rotate(-22.5)"/><path class="cls-3" d="M111.61,236.06a7.27,7.27,0,1,1-7.26-7.27A7.26,7.26,0,0,1,111.61,236.06Z"/><path class="cls-3" d="M153.35,236.06a7.27,7.27,0,1,1-7.26-7.27A7.26,7.26,0,0,1,153.35,236.06Z"/><circle class="cls-3" cx="187.83" cy="236.06" r="7.26" transform="translate(-76.31 90.33) rotate(-22.61)"/><circle class="cls-3" cx="229.57" cy="236.06" r="7.26" transform="translate(-73.1 106.38) rotate(-22.61)"/><path class="cls-3" d="M278.57,236.06a7.27,7.27,0,1,1-7.27-7.27A7.26,7.26,0,0,1,278.57,236.06Z"/><circle class="cls-3" cx="313.04" cy="236.06" r="7.26" transform="translate(-75.23 290.5) rotate(-45)"/><circle class="cls-3" cx="354.78" cy="236.06" r="7.26" transform="translate(-61.58 145.32) rotate(-21.34)"/><circle class="cls-3" cx="396.52" cy="236.06" r="7.26" transform="translate(75.92 567.97) rotate(-76.76)"/><circle class="cls-3" cx="438.26" cy="236.06" r="7.26" transform="translate(-38.55 379.04) rotate(-45)"/><circle class="cls-3" cx="480" cy="236.06" r="7.26" transform="translate(-51.26 173.74) rotate(-19.5)"/><circle class="cls-3" cx="521.74" cy="236.06" r="7.26" transform="translate(172.46 689.86) rotate(-76.76)"/><circle class="cls-3" cx="563.48" cy="236.06" r="7.26" transform="translate(-1.88 467.58) rotate(-45)"/><circle class="cls-3" cx="605.22" cy="236.06" r="7.26" transform="translate(-35.46 343.49) rotate(-30.83)"/><circle class="cls-3" cx="646.96" cy="236.06" r="7.26" transform="translate(268.99 811.75) rotate(-76.76)"/><circle class="cls-3" cx="688.7" cy="236.06" r="7.26" transform="translate(10.39 500.5) rotate(-40.22)"/><circle class="cls-3" cx="730.43" cy="236.06" r="7.26" transform="translate(47.02 585.64) rotate(-45)"/><circle class="cls-3" cx="772.17" cy="236.06" r="7.26" transform="translate(-31.41 314.95) rotate(-22.61)"/><circle class="cls-3" cx="813.91" cy="236.06" r="7.26" transform="translate(362.23 953.11) rotate(-73.97)"/><circle class="cls-3" cx="855.65" cy="236.06" r="7.26" transform="translate(83.7 674.18) rotate(-45)"/><circle class="cls-3" cx="897.39" cy="236.06" r="7.26" transform="translate(-21.79 363.08) rotate(-22.61)"/><circle class="cls-3" cx="939.13" cy="236.06" r="7.26" transform="translate(494.25 1096.16) rotate(-76.76)"/><circle class="cls-3" cy="267.69" r="7.26" transform="translate(-207.02 97.98) rotate(-50.65)"/><circle class="cls-3" cx="41.74" cy="267.69" r="7.26" transform="translate(-228.38 246.81) rotate(-76.72)"/><circle class="cls-3" cx="83.48" cy="267.69" r="7.26" transform="translate(-164.84 137.43) rotate(-45)"/><circle class="cls-3" cx="125.22" cy="267.69" r="7.26" transform="translate(-97.9 73.9) rotate(-23.95)"/><circle class="cls-3" cx="166.96" cy="267.69" r="7.26" transform="translate(-131.86 368.9) rotate(-76.76)"/><circle class="cls-3" cx="208.7" cy="267.69" r="7.26" transform="translate(-127.08 218.04) rotate(-43.65)"/><circle class="cls-3" cx="250.43" cy="267.69" r="7.26" transform="translate(-83.66 116.83) rotate(-22.61)"/><circle class="cls-3" cx="292.17" cy="267.69" r="7.26" transform="translate(-80.45 132.87) rotate(-22.61)"/><circle class="cls-3" cx="333.91" cy="267.69" r="7.26" transform="translate(-7.83 525.32) rotate(-75.73)"/><circle class="cls-3" cx="375.65" cy="267.69" r="7.26" transform="translate(-79.26 344.03) rotate(-45)"/><circle class="cls-3" cx="417.39" cy="267.69" r="7.26" transform="translate(-70.83 181) rotate(-22.61)"/><circle class="cls-3" cx="459.13" cy="267.69" r="7.26" transform="translate(93.39 653.31) rotate(-76.76)"/><circle class="cls-3" cx="500.87" cy="267.69" r="7.26" transform="translate(-42.59 432.57) rotate(-45)"/><circle class="cls-3" cx="542.61" cy="267.69" r="7.26" transform="translate(-61.21 229.14) rotate(-22.61)"/><circle class="cls-3" cx="584.35" cy="267.69" r="7.26" transform="translate(189.93 775.19) rotate(-76.76)"/><path class="cls-3" d="M633.35,267.69a7.27,7.27,0,1,1-7.26-7.26A7.27,7.27,0,0,1,633.35,267.69Z"/><circle class="cls-3" cx="667.83" cy="267.69" r="7.26" transform="translate(-51.59 277.27) rotate(-22.61)"/><circle class="cls-3" cx="709.57" cy="267.69" r="7.26" transform="translate(-48.38 293.31) rotate(-22.61)"/><path class="cls-3" d="M758.57,267.69a7.27,7.27,0,1,1-7.27-7.26A7.27,7.27,0,0,1,758.57,267.69Z"/><circle class="cls-3" cx="793.04" cy="267.69" r="7.26" transform="translate(42.99 639.17) rotate(-45)"/><circle class="cls-3" cx="834.78" cy="267.69" r="7.26" transform="translate(-41.3 299.21) rotate(-19.84)"/><circle class="cls-3" cx="876.52" cy="267.69" r="7.26" transform="translate(415.19 1059.6) rotate(-76.76)"/><circle class="cls-3" cx="918.26" cy="267.69" r="7.26" transform="translate(79.66 727.71) rotate(-45)"/><circle class="cls-3" cx="960" cy="267.69" r="7.26" transform="translate(-36.3 293.13) rotate(-17.04)"/><circle class="cls-3" cx="20.87" cy="302.98" r="7.26" transform="translate(-208.13 103.5) rotate(-45)"/><circle class="cls-3" cx="62.61" cy="302.98" r="7.26" transform="translate(-111.18 47.02) rotate(-22.5)"/><path class="cls-3" d="M111.61,303a7.27,7.27,0,1,1-7.26-7.26A7.27,7.27,0,0,1,111.61,303Z"/><path class="cls-3" d="M153.35,303a7.27,7.27,0,1,1-7.26-7.26A7.27,7.27,0,0,1,153.35,303Z"/><circle class="cls-3" cx="187.83" cy="302.98" r="7.26" transform="translate(-102.03 95.47) rotate(-22.61)"/><circle class="cls-3" cx="229.57" cy="302.98" r="7.26" transform="translate(-98.82 111.52) rotate(-22.61)"/><path class="cls-3" d="M278.57,303a7.27,7.27,0,1,1-7.27-7.26A7.27,7.27,0,0,1,278.57,303Z"/><circle class="cls-3" cx="313.04" cy="302.98" r="7.26" transform="translate(-122.55 310.1) rotate(-45)"/><circle class="cls-3" cx="354.78" cy="302.98" r="7.26" transform="translate(-85.94 149.91) rotate(-21.34)"/><circle class="cls-3" cx="396.52" cy="302.98" r="7.26" transform="translate(10.78 619.57) rotate(-76.76)"/><circle class="cls-3" cx="438.26" cy="302.98" r="7.26" transform="translate(-85.88 398.64) rotate(-45)"/><circle class="cls-3" cx="480" cy="302.98" r="7.26" transform="translate(-73.6 177.58) rotate(-19.5)"/><circle class="cls-3" cx="521.74" cy="302.98" r="7.26" transform="translate(107.31 741.46) rotate(-76.76)"/><circle class="cls-3" cx="563.48" cy="302.98" r="7.26" transform="translate(-49.2 487.18) rotate(-45)"/><circle class="cls-3" cx="605.22" cy="302.98" r="7.26" transform="translate(-69.76 352.94) rotate(-30.83)"/><circle class="cls-3" cx="646.96" cy="302.98" r="7.26" transform="translate(203.85 863.35) rotate(-76.76)"/><circle class="cls-3" cx="688.7" cy="302.98" r="7.26" transform="translate(-32.82 516.32) rotate(-40.22)"/><circle class="cls-3" cx="730.43" cy="302.98" r="7.26" transform="translate(-0.3 605.24) rotate(-45)"/><circle class="cls-3" cx="772.17" cy="302.98" r="7.26" transform="translate(-57.14 320.09) rotate(-22.61)"/><circle class="cls-3" cx="813.91" cy="302.98" r="7.26" transform="translate(297.91 1001.55) rotate(-73.97)"/><circle class="cls-3" cx="855.65" cy="302.98" r="7.26" transform="translate(36.37 693.78) rotate(-45)"/><circle class="cls-3" cx="897.39" cy="302.98" r="7.26" transform="translate(-47.52 368.22) rotate(-22.61)"/><circle class="cls-3" cx="939.13" cy="302.98" r="7.26" transform="translate(429.11 1147.75) rotate(-76.76)"/><circle class="cls-3" cy="334.62" r="7.26" transform="translate(-323.92 250.68) rotate(-75.47)"/><circle class="cls-3" cx="41.74" cy="334.62" r="7.26" transform="translate(-224.38 127.52) rotate(-45)"/><circle class="cls-3" cx="83.48" cy="334.62" r="7.26" transform="translate(-261.37 338.98) rotate(-76.72)"/><circle class="cls-3" cx="125.22" cy="334.62" r="7.26" transform="translate(-225.48 402.87) rotate(-80.5)"/><circle class="cls-3" cx="166.96" cy="334.62" r="7.26" transform="translate(-187.71 216.06) rotate(-45)"/><circle class="cls-3" cx="208.7" cy="334.62" r="7.26" transform="translate(-164.33 462.58) rotate(-76.98)"/><circle class="cls-3" cx="250.43" cy="334.62" r="7.26" transform="translate(-120.05 528.08) rotate(-80.76)"/><circle class="cls-3" cx="292.17" cy="334.62" r="7.26" transform="translate(-85.01 569.28) rotate(-80.76)"/><circle class="cls-3" cx="333.91" cy="334.62" r="7.26" transform="translate(-137.34 371.9) rotate(-49.58)"/><circle class="cls-3" cx="375.65" cy="334.62" r="7.26" transform="translate(-36.53 623.04) rotate(-76.68)"/><circle class="cls-3" cx="417.39" cy="334.62" r="7.26" transform="translate(20.11 692.87) rotate(-80.76)"/><circle class="cls-3" cx="459.13" cy="334.62" r="7.26" transform="translate(-102.13 422.66) rotate(-45)"/><circle class="cls-3" cx="500.87" cy="334.62" r="7.26" transform="translate(59.83 744.88) rotate(-76.68)"/><circle class="cls-3" cx="542.61" cy="334.62" r="7.26" transform="translate(125.22 816.47) rotate(-80.76)"/><circle class="cls-3" cx="584.35" cy="334.62" r="7.26" transform="translate(-65.46 511.2) rotate(-45)"/><path class="cls-3" d="M633.35,334.62a7.27,7.27,0,1,1-7.26-7.27A7.26,7.26,0,0,1,633.35,334.62Z"/><circle class="cls-3" cx="667.83" cy="334.62" r="7.26" transform="translate(230.33 940.06) rotate(-80.76)"/><circle class="cls-3" cx="709.57" cy="334.62" r="7.26" transform="translate(265.37 981.26) rotate(-80.76)"/><path class="cls-3" d="M758.57,334.62a7.27,7.27,0,1,1-7.27-7.27A7.26,7.26,0,0,1,758.57,334.62Z"/><circle class="cls-3" cx="793.04" cy="334.62" r="7.26" transform="translate(284.66 1029.19) rotate(-76.68)"/><circle class="cls-3" cx="834.78" cy="334.62" r="7.26" transform="translate(378.24 1109.47) rotate(-81.34)"/><circle class="cls-3" cx="876.52" cy="334.62" r="7.26" transform="translate(20.12 717.8) rotate(-45)"/><circle class="cls-3" cx="918.26" cy="334.62" r="7.26" transform="translate(381.02 1151.04) rotate(-76.68)"/><circle class="cls-3" cx="960" cy="334.62" r="7.26" transform="translate(494.7 1238.53) rotate(-81.98)"/><circle class="cls-3" cx="20.87" cy="369.9" r="7.26" transform="translate(-343.93 305.23) rotate(-76.72)"/><circle class="cls-3" cx="62.61" cy="369.9" r="7.26" transform="translate(-312.55 372.45) rotate(-80.78)"/><path class="cls-3" d="M111.61,369.9a7.27,7.27,0,1,1-7.26-7.26A7.26,7.26,0,0,1,111.61,369.9Z"/><path class="cls-3" d="M153.35,369.9a7.27,7.27,0,1,1-7.26-7.26A7.26,7.26,0,0,1,153.35,369.9Z"/><circle class="cls-3" cx="187.83" cy="369.9" r="7.26" transform="translate(-207.44 495.91) rotate(-80.76)"/><circle class="cls-3" cx="229.57" cy="369.9" r="7.26" transform="translate(-172.4 537.11) rotate(-80.76)"/><path class="cls-3" d="M278.57,369.9a7.27,7.27,0,1,1-7.27-7.26A7.26,7.26,0,0,1,278.57,369.9Z"/><circle class="cls-3" cx="313.04" cy="369.9" r="7.26" transform="translate(-119.05 589.27) rotate(-76.68)"/><circle class="cls-3" cx="354.78" cy="369.9" r="7.26" transform="matrix(0.16, -0.99, 0.99, 0.16, -65.98, 662.58)"/><circle class="cls-3" cx="396.52" cy="369.9" r="7.26" transform="translate(-145.42 388.73) rotate(-45)"/><circle class="cls-3" cx="438.26" cy="369.9" r="7.26" transform="translate(-22.69 711.12) rotate(-76.68)"/><circle class="cls-3" cx="480" cy="369.9" r="7.26" transform="translate(42.56 789.28) rotate(-81.41)"/><circle class="cls-3" cx="521.74" cy="369.9" r="7.26" transform="translate(-108.75 477.27) rotate(-45)"/><circle class="cls-3" cx="563.48" cy="369.9" r="7.26" transform="translate(73.67 832.96) rotate(-76.68)"/><circle class="cls-3" cx="605.22" cy="369.9" r="7.26" transform="translate(128.95 895.53) rotate(-79.25)"/><circle class="cls-3" cx="646.96" cy="369.9" r="7.26" transform="translate(-72.07 565.81) rotate(-45)"/><circle class="cls-3" cx="688.7" cy="369.9" r="7.26" transform="translate(179.75 963.29) rotate(-77.62)"/><circle class="cls-3" cx="730.43" cy="369.9" r="7.26" transform="translate(202.14 995.42) rotate(-76.68)"/><circle class="cls-3" cx="772.17" cy="369.9" r="7.26" transform="translate(283.1 1072.68) rotate(-80.76)"/><circle class="cls-3" cx="813.91" cy="369.9" r="7.26" transform="translate(52.09 837.78) rotate(-56)"/><circle class="cls-3" cx="855.65" cy="369.9" r="7.26" transform="translate(298.5 1117.27) rotate(-76.68)"/><circle class="cls-3" cx="897.39" cy="369.9" r="7.26" transform="translate(388.21 1196.27) rotate(-80.76)"/><circle class="cls-3" cx="939.13" cy="369.9" r="7.26" transform="translate(13.5 772.41) rotate(-45)"/><circle class="cls-3" cy="401.54" r="7.26" transform="translate(-388.7 300.82) rotate(-75.47)"/><circle class="cls-3" cx="41.74" cy="401.54" r="7.26" transform="translate(-271.71 147.12) rotate(-45)"/><circle class="cls-3" cx="83.48" cy="401.54" r="7.26" transform="translate(-326.5 390.53) rotate(-76.72)"/><circle class="cls-3" cx="125.22" cy="401.54" r="7.26" transform="translate(-291.48 458.75) rotate(-80.5)"/><circle class="cls-3" cx="166.96" cy="401.54" r="7.26" transform="translate(-235.03 235.66) rotate(-45)"/><circle class="cls-3" cx="208.7" cy="401.54" r="7.26" transform="translate(-229.53 514.43) rotate(-76.98)"/><circle class="cls-3" cx="250.43" cy="401.54" r="7.26" transform="translate(-186.1 584.26) rotate(-80.76)"/><circle class="cls-3" cx="292.17" cy="401.54" r="7.26" transform="translate(-151.06 625.46) rotate(-80.76)"/><circle class="cls-3" cx="333.91" cy="401.54" r="7.26" transform="translate(-188.29 395.43) rotate(-49.58)"/><circle class="cls-3" cx="375.65" cy="401.54" r="7.26" transform="translate(-101.65 674.54) rotate(-76.68)"/><circle class="cls-3" cx="417.39" cy="401.54" r="7.26" transform="translate(-45.95 749.05) rotate(-80.76)"/><circle class="cls-3" cx="459.13" cy="401.54" r="7.26" transform="translate(-149.45 442.26) rotate(-45)"/><circle class="cls-3" cx="500.87" cy="401.54" r="7.26" transform="translate(-5.3 796.38) rotate(-76.68)"/><circle class="cls-3" cx="542.61" cy="401.54" r="7.26" transform="translate(59.16 872.64) rotate(-80.76)"/><circle class="cls-3" cx="584.35" cy="401.54" r="7.26" transform="translate(-112.78 530.8) rotate(-45)"/><path class="cls-3" d="M633.35,401.54a7.27,7.27,0,1,1-7.26-7.27A7.26,7.26,0,0,1,633.35,401.54Z"/><circle class="cls-3" cx="667.83" cy="401.54" r="7.26" transform="translate(164.28 996.24) rotate(-80.76)"/><circle class="cls-3" cx="709.57" cy="401.54" r="7.26" transform="translate(199.32 1037.43) rotate(-80.76)"/><path class="cls-3" d="M758.57,401.54a7.27,7.27,0,1,1-7.27-7.27A7.26,7.26,0,0,1,758.57,401.54Z"/><circle class="cls-3" cx="793.04" cy="401.54" r="7.26" transform="translate(219.54 1080.69) rotate(-76.68)"/><circle class="cls-3" cx="834.78" cy="401.54" r="7.26" transform="translate(312.08 1166.31) rotate(-81.34)"/><circle class="cls-3" cx="876.52" cy="401.54" r="7.26" transform="translate(-27.2 737.4) rotate(-45)"/><circle class="cls-3" cx="918.26" cy="401.54" r="7.26" transform="translate(315.9 1202.54) rotate(-76.68)"/><circle class="cls-3" cx="960" cy="401.54" r="7.26" transform="translate(428.43 1296.12) rotate(-81.98)"/><circle class="cls-3" cx="20.87" cy="436.83" r="7.26" transform="translate(-409.07 356.78) rotate(-76.72)"/><circle class="cls-3" cx="62.61" cy="436.83" r="7.26" transform="translate(-378.61 428.66) rotate(-80.78)"/><path class="cls-3" d="M111.61,436.83a7.27,7.27,0,1,1-7.26-7.27A7.26,7.26,0,0,1,111.61,436.83Z"/><path class="cls-3" d="M153.35,436.83a7.27,7.27,0,1,1-7.26-7.27A7.26,7.26,0,0,1,153.35,436.83Z"/><circle class="cls-3" cx="187.83" cy="436.83" r="7.26" transform="translate(-273.49 552.09) rotate(-80.76)"/><circle class="cls-3" cx="229.57" cy="436.83" r="7.26" transform="translate(-238.45 593.28) rotate(-80.76)"/><path class="cls-3" d="M278.57,436.83a7.27,7.27,0,1,1-7.27-7.27A7.26,7.26,0,0,1,278.57,436.83Z"/><circle class="cls-3" cx="313.04" cy="436.83" r="7.26" transform="translate(-184.17 640.77) rotate(-76.68)"/><circle class="cls-3" cx="354.78" cy="436.83" r="7.26" transform="translate(-132.08 719.06) rotate(-81.02)"/><circle class="cls-3" cx="396.52" cy="436.83" r="7.26" transform="translate(-192.75 408.33) rotate(-45)"/><circle class="cls-3" cx="438.26" cy="436.83" r="7.26" transform="translate(-87.81 762.61) rotate(-76.68)"/><circle class="cls-3" cx="480" cy="436.83" r="7.26" transform="translate(-23.61 846.21) rotate(-81.41)"/><circle class="cls-3" cx="521.74" cy="436.83" r="7.26" transform="translate(-156.07 496.87) rotate(-45)"/><circle class="cls-3" cx="563.48" cy="436.83" r="7.26" transform="translate(8.54 884.46) rotate(-76.68)"/><circle class="cls-3" cx="605.22" cy="436.83" r="7.26" transform="translate(63.2 949.98) rotate(-79.25)"/><circle class="cls-3" cx="646.96" cy="436.83" r="7.26" transform="translate(-119.39 585.41) rotate(-45)"/><circle class="cls-3" cx="688.7" cy="436.83" r="7.26" transform="translate(114.39 1015.87) rotate(-77.62)"/><circle class="cls-3" cx="730.43" cy="436.83" r="7.26" transform="translate(137.02 1046.92) rotate(-76.68)"/><circle class="cls-3" cx="772.17" cy="436.83" r="7.26" transform="translate(217.04 1128.85) rotate(-80.76)"/><circle class="cls-3" cx="813.91" cy="436.83" r="7.26" transform="translate(-3.39 867.27) rotate(-56)"/><circle class="cls-3" cx="855.65" cy="436.83" r="7.26" transform="translate(233.38 1168.77) rotate(-76.68)"/><circle class="cls-3" cx="897.39" cy="436.83" r="7.26" transform="translate(322.16 1252.45) rotate(-80.76)"/><circle class="cls-3" cx="939.13" cy="436.83" r="7.26" transform="translate(-33.82 792.01) rotate(-45)"/><circle class="cls-3" cy="468.46" r="7.26" transform="translate(-453.48 350.95) rotate(-75.47)"/><circle class="cls-3" cx="41.74" cy="468.46" r="7.26" transform="translate(-319.03 166.72) rotate(-45)"/><circle class="cls-3" cx="83.48" cy="468.46" r="7.26" transform="translate(-391.63 442.08) rotate(-76.72)"/><circle class="cls-3" cx="125.22" cy="468.46" r="7.26" transform="translate(-357.49 514.62) rotate(-80.5)"/><circle class="cls-3" cx="166.96" cy="468.46" r="7.26" transform="translate(-282.35 255.27) rotate(-45)"/><circle class="cls-3" cx="208.7" cy="468.46" r="7.26" transform="translate(-294.74 566.28) rotate(-76.98)"/><circle class="cls-3" cx="250.43" cy="468.46" r="7.26" transform="translate(-252.16 640.44) rotate(-80.76)"/><circle class="cls-3" cx="292.17" cy="468.46" r="7.26" transform="translate(-217.12 681.64) rotate(-80.76)"/><circle class="cls-3" cx="333.91" cy="468.46" r="7.26" transform="translate(-239.24 418.96) rotate(-49.58)"/><circle class="cls-3" cx="375.65" cy="468.46" r="7.26" transform="translate(-166.78 726.03) rotate(-76.68)"/><circle class="cls-3" cx="417.39" cy="468.46" r="7.26" transform="translate(-112 805.23) rotate(-80.76)"/><circle class="cls-3" cx="459.13" cy="468.46" r="7.26" transform="translate(-196.78 461.86) rotate(-45)"/><circle class="cls-3" cx="500.87" cy="468.46" r="7.26" transform="translate(-70.42 847.88) rotate(-76.68)"/><circle class="cls-3" cx="542.61" cy="468.46" r="7.26" transform="translate(-6.89 928.82) rotate(-80.76)"/><circle class="cls-3" cx="584.35" cy="468.46" r="7.26" transform="translate(-160.1 550.41) rotate(-45)"/><path class="cls-3" d="M633.35,468.46a7.27,7.27,0,1,1-7.26-7.26A7.27,7.27,0,0,1,633.35,468.46Z"/><circle class="cls-3" cx="667.83" cy="468.46" r="7.26" transform="translate(98.22 1052.42) rotate(-80.76)"/><circle class="cls-3" cx="709.57" cy="468.46" r="7.26" transform="translate(133.26 1093.61) rotate(-80.76)"/><path class="cls-3" d="M758.57,468.46a7.27,7.27,0,1,1-7.27-7.26A7.27,7.27,0,0,1,758.57,468.46Z"/><circle class="cls-3" cx="793.04" cy="468.46" r="7.26" transform="translate(154.42 1132.19) rotate(-76.68)"/><circle class="cls-3" cx="834.78" cy="468.46" r="7.26" transform="translate(245.92 1223.16) rotate(-81.34)"/><circle class="cls-3" cx="876.52" cy="468.46" r="7.26" transform="translate(-74.53 757) rotate(-45)"/><circle class="cls-3" cx="918.26" cy="468.46" r="7.26" transform="translate(250.78 1254.04) rotate(-76.68)"/><circle class="cls-3" cx="960" cy="468.46" r="7.26" transform="translate(362.16 1353.7) rotate(-81.98)"/><circle class="cls-3" cx="20.87" cy="503.75" r="7.26" transform="translate(-474.2 408.32) rotate(-76.72)"/><circle class="cls-3" cx="62.61" cy="503.75" r="7.26" transform="translate(-444.67 484.86) rotate(-80.78)"/><path class="cls-3" d="M111.61,503.75a7.27,7.27,0,1,1-7.26-7.26A7.27,7.27,0,0,1,111.61,503.75Z"/><path class="cls-3" d="M153.35,503.75a7.27,7.27,0,1,1-7.26-7.26A7.27,7.27,0,0,1,153.35,503.75Z"/><circle class="cls-3" cx="187.83" cy="503.75" r="7.26" transform="translate(-339.55 608.27) rotate(-80.76)"/><circle class="cls-3" cx="229.57" cy="503.75" r="7.26" transform="translate(-304.51 649.46) rotate(-80.76)"/><path class="cls-3" d="M278.57,503.75a7.27,7.27,0,1,1-7.27-7.26A7.27,7.27,0,0,1,278.57,503.75Z"/><circle class="cls-3" cx="313.04" cy="503.75" r="7.26" transform="translate(-249.29 692.27) rotate(-76.68)"/><circle class="cls-3" cx="354.78" cy="503.75" r="7.26" transform="translate(-198.18 775.53) rotate(-81.02)"/><circle class="cls-3" cx="396.52" cy="503.75" r="7.26" transform="translate(-240.07 427.93) rotate(-45)"/><circle class="cls-3" cx="438.26" cy="503.75" r="7.26" transform="translate(-152.94 814.11) rotate(-76.68)"/><circle class="cls-3" cx="480" cy="503.75" r="7.26" transform="translate(-89.78 903.14) rotate(-81.41)"/><circle class="cls-3" cx="521.74" cy="503.75" r="7.26" transform="translate(-203.39 516.47) rotate(-45)"/><circle class="cls-3" cx="563.48" cy="503.75" r="7.26" transform="translate(-56.58 935.96) rotate(-76.68)"/><circle class="cls-3" cx="605.22" cy="503.75" r="7.26" transform="translate(-2.55 1004.42) rotate(-79.25)"/><circle class="cls-3" cx="646.96" cy="503.75" r="7.26" transform="translate(-166.72 605.01) rotate(-45)"/><circle class="cls-3" cx="688.7" cy="503.75" r="7.26" transform="translate(49.02 1068.45) rotate(-77.62)"/><circle class="cls-3" cx="730.43" cy="503.75" r="7.26" transform="translate(71.9 1098.42) rotate(-76.68)"/><circle class="cls-3" cx="772.17" cy="503.75" r="7.26" transform="translate(150.99 1185.03) rotate(-80.76)"/><circle class="cls-3" cx="813.91" cy="503.75" r="7.26" transform="matrix(0.56, -0.83, 0.83, 0.56, -58.87, 896.77)"/><circle class="cls-3" cx="855.65" cy="503.75" r="7.26" transform="translate(168.26 1220.27) rotate(-76.68)"/><circle class="cls-3" cx="897.39" cy="503.75" r="7.26" transform="translate(256.1 1308.63) rotate(-80.76)"/><circle class="cls-3" cx="939.13" cy="503.75" r="7.26" transform="translate(-81.14 811.61) rotate(-45)"/><circle class="cls-3" cy="535.39" r="7.26" transform="matrix(0.25, -0.97, 0.97, 0.25, -518.27, 401.09)"/><circle class="cls-3" cx="41.74" cy="535.39" r="7.26" transform="translate(-366.35 186.32) rotate(-45)"/><circle class="cls-3" cx="83.48" cy="535.39" r="7.26" transform="translate(-456.76 493.62) rotate(-76.72)"/><circle class="cls-3" cx="125.22" cy="535.39" r="7.26" transform="translate(-423.49 570.49) rotate(-80.5)"/><circle class="cls-3" cx="166.96" cy="535.39" r="7.26" transform="translate(-329.67 274.87) rotate(-45)"/><circle class="cls-3" cx="208.7" cy="535.39" r="7.26" transform="translate(-359.94 618.13) rotate(-76.98)"/><circle class="cls-3" cx="250.43" cy="535.39" r="7.26" transform="translate(-318.21 696.62) rotate(-80.76)"/><circle class="cls-3" cx="292.17" cy="535.39" r="7.26" transform="translate(-283.17 737.82) rotate(-80.76)"/><circle class="cls-3" cx="333.91" cy="535.39" r="7.26" transform="translate(-290.19 442.5) rotate(-49.58)"/><circle class="cls-3" cx="375.65" cy="535.39" r="7.26" transform="translate(-231.9 777.53) rotate(-76.68)"/><circle class="cls-3" cx="417.39" cy="535.39" r="7.26" transform="translate(-178.06 861.41) rotate(-80.76)"/><circle class="cls-3" cx="459.13" cy="535.39" r="7.26" transform="translate(-244.1 481.47) rotate(-45)"/><circle class="cls-3" cx="500.87" cy="535.39" r="7.26" transform="translate(-135.54 899.38) rotate(-76.68)"/><circle class="cls-3" cx="542.61" cy="535.39" r="7.26" transform="translate(-72.95 985) rotate(-80.76)"/><circle class="cls-3" cx="584.35" cy="535.39" r="7.26" transform="translate(-207.42 570.01) rotate(-45)"/><path class="cls-3" d="M633.35,535.39a7.27,7.27,0,1,1-7.26-7.27A7.26,7.26,0,0,1,633.35,535.39Z"/><circle class="cls-3" cx="667.83" cy="535.39" r="7.26" transform="translate(32.17 1108.6) rotate(-80.76)"/><circle class="cls-3" cx="709.57" cy="535.39" r="7.26" transform="translate(67.21 1149.79) rotate(-80.76)"/><path class="cls-3" d="M758.57,535.39a7.27,7.27,0,1,1-7.27-7.27A7.26,7.26,0,0,1,758.57,535.39Z"/><circle class="cls-3" cx="793.04" cy="535.39" r="7.26" transform="translate(89.3 1183.69) rotate(-76.68)"/><circle class="cls-3" cx="834.78" cy="535.39" r="7.26" transform="translate(179.76 1280) rotate(-81.34)"/><circle class="cls-3" cx="876.52" cy="535.39" r="7.26" transform="translate(-121.85 776.61) rotate(-45)"/><circle class="cls-3" cx="918.26" cy="535.39" r="7.26" transform="translate(185.66 1305.54) rotate(-76.68)"/><circle class="cls-3" cx="960" cy="535.39" r="7.26" transform="translate(295.89 1411.29) rotate(-81.98)"/><circle class="cls-3" cx="20.87" cy="570.67" r="7.26" transform="translate(-539.33 459.87) rotate(-76.72)"/><circle class="cls-3" cx="62.61" cy="570.67" r="7.26" transform="translate(-510.73 541.06) rotate(-80.78)"/><path class="cls-3" d="M111.61,570.67a7.27,7.27,0,1,1-7.26-7.26A7.26,7.26,0,0,1,111.61,570.67Z"/><path class="cls-3" d="M153.35,570.67a7.27,7.27,0,1,1-7.26-7.26A7.26,7.26,0,0,1,153.35,570.67Z"/><circle class="cls-3" cx="187.83" cy="570.67" r="7.26" transform="translate(-405.6 664.44) rotate(-80.76)"/><circle class="cls-3" cx="229.57" cy="570.67" r="7.26" transform="translate(-370.56 705.64) rotate(-80.76)"/><path class="cls-3" d="M278.57,570.67a7.27,7.27,0,1,1-7.27-7.26A7.26,7.26,0,0,1,278.57,570.67Z"/><circle class="cls-3" cx="313.04" cy="570.67" r="7.26" transform="translate(-314.42 743.77) rotate(-76.68)"/><circle class="cls-3" cx="354.78" cy="570.67" r="7.26" transform="translate(-264.29 832.01) rotate(-81.02)"/><circle class="cls-3" cx="396.52" cy="570.67" r="7.26" transform="translate(-287.39 447.53) rotate(-45)"/><circle class="cls-3" cx="438.26" cy="570.67" r="7.26" transform="translate(-218.06 865.61) rotate(-76.68)"/><circle class="cls-3" cx="480" cy="570.67" r="7.26" transform="translate(-155.96 960.07) rotate(-81.41)"/><circle class="cls-3" cx="521.74" cy="570.67" r="7.26" transform="translate(-250.71 536.07) rotate(-45)"/><circle class="cls-3" cx="563.48" cy="570.67" r="7.26" transform="translate(-121.7 987.46) rotate(-76.68)"/><circle class="cls-3" cx="605.22" cy="570.67" r="7.26" transform="translate(-68.3 1058.86) rotate(-79.25)"/><circle class="cls-3" cx="646.96" cy="570.67" r="7.26" transform="translate(-214.04 624.61) rotate(-45)"/><circle class="cls-3" cx="688.7" cy="570.67" r="7.26" transform="translate(-16.35 1121.02) rotate(-77.62)"/><circle class="cls-3" cx="730.43" cy="570.67" r="7.26" transform="translate(6.78 1149.92) rotate(-76.68)"/><circle class="cls-3" cx="772.17" cy="570.67" r="7.26" transform="translate(84.93 1241.21) rotate(-80.76)"/><circle class="cls-3" cx="813.91" cy="570.67" r="7.26" transform="translate(-114.35 926.27) rotate(-56)"/><circle class="cls-3" cx="855.65" cy="570.67" r="7.26" transform="translate(103.14 1271.77) rotate(-76.68)"/><circle class="cls-3" cx="897.39" cy="570.67" r="7.26" transform="translate(190.05 1364.81) rotate(-80.76)"/><circle class="cls-3" cx="939.13" cy="570.67" r="7.26" transform="translate(-128.46 831.21) rotate(-45)"/><circle class="cls-3" cy="602.31" r="7.26"/><circle class="cls-3" cx="41.74" cy="602.31" r="7.26"/><circle class="cls-3" cx="83.48" cy="602.31" r="7.26"/><circle class="cls-3" cx="125.22" cy="602.31" r="7.26"/><circle class="cls-3" cx="166.96" cy="602.31" r="7.26"/><circle class="cls-3" cx="208.7" cy="602.31" r="7.26"/><circle class="cls-3" cx="250.43" cy="602.31" r="7.26"/><circle class="cls-3" cx="292.17" cy="602.31" r="7.26"/><circle class="cls-3" cx="333.91" cy="602.31" r="7.26"/><circle class="cls-3" cx="375.65" cy="602.31" r="7.26"/><circle class="cls-3" cx="417.39" cy="602.31" r="7.26"/><circle class="cls-3" cx="459.13" cy="602.31" r="7.26"/><circle class="cls-3" cx="500.87" cy="602.31" r="7.26"/><circle class="cls-3" cx="542.61" cy="602.31" r="7.26"/><circle class="cls-3" cx="584.35" cy="602.31" r="7.26"/><path class="cls-3" d="M633.35,602.31a7.27,7.27,0,1,1-7.26-7.27A7.26,7.26,0,0,1,633.35,602.31Z"/><circle class="cls-3" cx="667.83" cy="602.31" r="7.26"/><circle class="cls-3" cx="709.57" cy="602.31" r="7.26"/><path class="cls-3" d="M758.57,602.31A7.27,7.27,0,1,1,751.3,595,7.26,7.26,0,0,1,758.57,602.31Z"/><circle class="cls-3" cx="793.04" cy="602.31" r="7.26"/><circle class="cls-3" cx="834.78" cy="602.31" r="7.26"/><circle class="cls-3" cx="876.52" cy="602.31" r="7.26"/><circle class="cls-3" cx="918.26" cy="602.31" r="7.26"/><circle class="cls-3" cx="960" cy="602.31" r="7.26"/><circle class="cls-3" cx="20.87" cy="637.6" r="7.26"/><circle class="cls-3" cx="62.61" cy="637.6" r="7.26"/><circle class="cls-3" cx="104.35" cy="637.6" r="7.26"/><circle class="cls-3" cx="146.09" cy="637.6" r="7.26"/><circle class="cls-3" cx="187.83" cy="637.6" r="7.26"/><circle class="cls-3" cx="229.57" cy="637.6" r="7.26"/><circle class="cls-3" cx="271.3" cy="637.6" r="7.26"/><circle class="cls-3" cx="313.04" cy="637.6" r="7.26"/><circle class="cls-3" cx="354.78" cy="637.6" r="7.26"/><circle class="cls-3" cx="396.52" cy="637.6" r="7.26"/><circle class="cls-3" cx="438.26" cy="637.6" r="7.26"/><circle class="cls-3" cx="480" cy="637.6" r="7.26"/><circle class="cls-3" cx="521.74" cy="637.6" r="7.26"/><circle class="cls-3" cx="563.48" cy="637.6" r="7.26"/><circle class="cls-3" cx="605.22" cy="637.6" r="7.26"/><circle class="cls-3" cx="646.96" cy="637.6" r="7.26"/><circle class="cls-3" cx="688.7" cy="637.6" r="7.26"/><circle class="cls-3" cx="730.43" cy="637.6" r="7.26"/><circle class="cls-3" cx="772.17" cy="637.6" r="7.26"/><circle class="cls-3" cx="813.91" cy="637.6" r="7.26"/><circle class="cls-3" cx="855.65" cy="637.6" r="7.26"/><circle class="cls-3" cx="897.39" cy="637.6" r="7.26"/><circle class="cls-3" cx="939.13" cy="637.6" r="7.26"/><circle class="cls-3" cy="669.23" r="7.26"/><circle class="cls-3" cx="41.74" cy="669.23" r="7.26"/><circle class="cls-3" cx="83.48" cy="669.23" r="7.26"/><circle class="cls-3" cx="125.22" cy="669.23" r="7.26"/><circle class="cls-3" cx="166.96" cy="669.23" r="7.26"/><circle class="cls-3" cx="208.7" cy="669.23" r="7.26"/><circle class="cls-3" cx="250.43" cy="669.23" r="7.26"/><circle class="cls-3" cx="292.17" cy="669.23" r="7.26"/><circle class="cls-3" cx="333.91" cy="669.23" r="7.26"/><circle class="cls-3" cx="375.65" cy="669.23" r="7.26"/><circle class="cls-3" cx="417.39" cy="669.23" r="7.26"/><circle class="cls-3" cx="459.13" cy="669.23" r="7.26"/><circle class="cls-3" cx="500.87" cy="669.23" r="7.26"/><circle class="cls-3" cx="542.61" cy="669.23" r="7.26"/><circle class="cls-3" cx="584.35" cy="669.23" r="7.26"/><path class="cls-3" d="M633.35,669.23a7.27,7.27,0,1,1-7.26-7.26A7.27,7.27,0,0,1,633.35,669.23Z"/><circle class="cls-3" cx="667.83" cy="669.23" r="7.26"/><circle class="cls-3" cx="709.57" cy="669.23" r="7.26"/><path class="cls-3" d="M758.57,669.23A7.27,7.27,0,1,1,751.3,662,7.27,7.27,0,0,1,758.57,669.23Z"/><circle class="cls-3" cx="793.04" cy="669.23" r="7.26"/><circle class="cls-3" cx="834.78" cy="669.23" r="7.26"/><circle class="cls-3" cx="876.52" cy="669.23" r="7.26"/><circle class="cls-3" cx="918.26" cy="669.23" r="7.26"/><circle class="cls-3" cx="960" cy="669.23" r="7.26"/><circle class="cls-3" cx="20.87" cy="704.52" r="7.26"/><circle class="cls-3" cx="62.61" cy="704.52" r="7.26"/><circle class="cls-3" cx="104.35" cy="704.52" r="7.26"/><circle class="cls-3" cx="146.09" cy="704.52" r="7.26"/><circle class="cls-3" cx="187.83" cy="704.52" r="7.26"/><circle class="cls-3" cx="229.57" cy="704.52" r="7.26"/><circle class="cls-3" cx="271.3" cy="704.52" r="7.26"/><circle class="cls-3" cx="313.04" cy="704.52" r="7.26"/><circle class="cls-3" cx="354.78" cy="704.52" r="7.26"/><circle class="cls-3" cx="396.52" cy="704.52" r="7.26"/><circle class="cls-3" cx="438.26" cy="704.52" r="7.26"/><circle class="cls-3" cx="480" cy="704.52" r="7.26"/><circle class="cls-3" cx="521.74" cy="704.52" r="7.26"/><circle class="cls-3" cx="563.48" cy="704.52" r="7.26"/><circle class="cls-3" cx="605.22" cy="704.52" r="7.26"/><circle class="cls-3" cx="646.96" cy="704.52" r="7.26"/><circle class="cls-3" cx="688.7" cy="704.52" r="7.26"/><circle class="cls-3" cx="730.43" cy="704.52" r="7.26"/><circle class="cls-3" cx="772.17" cy="704.52" r="7.26"/><circle class="cls-3" cx="813.91" cy="704.52" r="7.26"/><circle class="cls-3" cx="855.65" cy="704.52" r="7.26"/><circle class="cls-3" cx="897.39" cy="704.52" r="7.26"/><circle class="cls-3" cx="939.13" cy="704.52" r="7.26"/><circle class="cls-3" cy="736.16" r="7.26"/><circle class="cls-3" cx="41.74" cy="736.16" r="7.26"/><circle class="cls-3" cx="83.48" cy="736.16" r="7.26"/><circle class="cls-3" cx="125.22" cy="736.16" r="7.26"/><circle class="cls-3" cx="166.96" cy="736.16" r="7.26"/><circle class="cls-3" cx="208.7" cy="736.16" r="7.26"/><circle class="cls-3" cx="250.43" cy="736.16" r="7.26"/><circle class="cls-3" cx="292.17" cy="736.16" r="7.26"/><circle class="cls-3" cx="333.91" cy="736.16" r="7.26"/><circle class="cls-3" cx="375.65" cy="736.16" r="7.26"/><circle class="cls-3" cx="417.39" cy="736.16" r="7.26"/><circle class="cls-3" cx="459.13" cy="736.16" r="7.26"/><circle class="cls-3" cx="500.87" cy="736.16" r="7.26"/><circle class="cls-3" cx="542.61" cy="736.16" r="7.26"/><circle class="cls-3" cx="584.35" cy="736.16" r="7.26"/><path class="cls-3" d="M633.35,736.16a7.27,7.27,0,1,1-7.26-7.27A7.26,7.26,0,0,1,633.35,736.16Z"/><circle class="cls-3" cx="667.83" cy="736.16" r="7.26"/><circle class="cls-3" cx="709.57" cy="736.16" r="7.26"/><path class="cls-3" d="M758.57,736.16a7.27,7.27,0,1,1-7.27-7.27A7.26,7.26,0,0,1,758.57,736.16Z"/><circle class="cls-3" cx="793.04" cy="736.16" r="7.26"/><circle class="cls-3" cx="834.78" cy="736.16" r="7.26"/><circle class="cls-3" cx="876.52" cy="736.16" r="7.26"/><circle class="cls-3" cx="918.26" cy="736.16" r="7.26"/><circle class="cls-3" cx="960" cy="736.16" r="7.26"/><circle class="cls-3" cx="20.87" cy="771.44" r="7.26"/><circle class="cls-3" cx="62.61" cy="771.44" r="7.26"/><circle class="cls-3" cx="104.35" cy="771.44" r="7.26"/><circle class="cls-3" cx="146.09" cy="771.44" r="7.26"/><circle class="cls-3" cx="187.83" cy="771.44" r="7.26"/><circle class="cls-3" cx="229.57" cy="771.44" r="7.26"/><circle class="cls-3" cx="271.3" cy="771.44" r="7.26"/><circle class="cls-3" cx="313.04" cy="771.44" r="7.26"/><circle class="cls-3" cx="354.78" cy="771.44" r="7.26"/><circle class="cls-3" cx="396.52" cy="771.44" r="7.26"/><circle class="cls-3" cx="438.26" cy="771.44" r="7.26"/><circle class="cls-3" cx="480" cy="771.44" r="7.26"/><circle class="cls-3" cx="521.74" cy="771.44" r="7.26"/><circle class="cls-3" cx="563.48" cy="771.44" r="7.26"/><circle class="cls-3" cx="605.22" cy="771.44" r="7.26"/><circle class="cls-3" cx="646.96" cy="771.44" r="7.26"/><circle class="cls-3" cx="688.7" cy="771.44" r="7.26"/><circle class="cls-3" cx="730.43" cy="771.44" r="7.26"/><circle class="cls-3" cx="772.17" cy="771.44" r="7.26"/><circle class="cls-3" cx="813.91" cy="771.44" r="7.26"/><circle class="cls-3" cx="855.65" cy="771.44" r="7.26"/><circle class="cls-3" cx="897.39" cy="771.44" r="7.26"/><circle class="cls-3" cx="939.13" cy="771.44" r="7.26"/><circle class="cls-3" cy="803.08" r="7.26" transform="translate(-621.05 293.93) rotate(-50.65)"/><circle class="cls-3" cx="41.74" cy="803.08" r="7.26" transform="translate(-749.45 659.19) rotate(-76.72)"/><circle class="cls-3" cx="83.48" cy="803.08" r="7.26" transform="translate(-543.41 294.24) rotate(-45)"/><circle class="cls-3" cx="125.22" cy="803.08" r="7.26" transform="translate(-315.28 120.01) rotate(-23.95)"/><circle class="cls-3" cx="166.96" cy="803.08" r="7.26" transform="translate(-653.01 781.66) rotate(-76.76)"/><circle class="cls-3" cx="208.7" cy="803.08" r="7.26" transform="translate(-496.62 366.03) rotate(-43.65)"/><circle class="cls-3" cx="250.43" cy="803.08" r="7.26" transform="translate(-289.45 157.96) rotate(-22.61)"/><circle class="cls-3" cx="292.17" cy="803.08" r="7.26" transform="translate(-286.24 174) rotate(-22.61)"/><circle class="cls-3" cx="333.91" cy="803.08" r="7.26" transform="translate(-526.69 928.73) rotate(-75.73)"/><circle class="cls-3" cx="375.65" cy="803.08" r="7.26" transform="translate(-457.84 500.84) rotate(-45)"/><circle class="cls-3" cx="417.39" cy="803.08" r="7.26" transform="translate(-276.62 222.14) rotate(-22.61)"/><circle class="cls-3" cx="459.13" cy="803.08" r="7.26" transform="translate(-427.76 1066.07) rotate(-76.76)"/><circle class="cls-3" cx="500.87" cy="803.08" r="7.26" transform="translate(-421.16 589.38) rotate(-45)"/><circle class="cls-3" cx="542.61" cy="803.08" r="7.26" transform="translate(-267 270.27) rotate(-22.61)"/><circle class="cls-3" cx="584.35" cy="803.08" r="7.26" transform="translate(-331.22 1187.96) rotate(-76.76)"/><path class="cls-3" d="M633.35,803.08a7.27,7.27,0,1,1-7.26-7.27A7.26,7.26,0,0,1,633.35,803.08Z"/><circle class="cls-3" cx="667.83" cy="803.08" r="7.26" transform="translate(-257.38 318.4) rotate(-22.61)"/><circle class="cls-3" cx="709.57" cy="803.08" r="7.26" transform="translate(-254.18 334.44) rotate(-22.61)"/><path class="cls-3" d="M758.57,803.08a7.27,7.27,0,1,1-7.27-7.27A7.26,7.26,0,0,1,758.57,803.08Z"/><circle class="cls-3" cx="793.04" cy="803.08" r="7.26" transform="translate(-335.59 795.98) rotate(-45)"/><circle class="cls-3" cx="834.78" cy="803.08" r="7.26" transform="translate(-223.01 330.98) rotate(-19.84)"/><circle class="cls-3" cx="876.52" cy="803.08" r="7.26" transform="translate(-105.97 1472.36) rotate(-76.76)"/><circle class="cls-3" cx="918.26" cy="803.08" r="7.26" transform="translate(-298.91 884.52) rotate(-45)"/><circle class="cls-3" cx="960" cy="803.08" r="7.26" transform="translate(-193.22 316.65) rotate(-17.04)"/><circle class="cls-3" cx="20.87" cy="838.37" r="7.26" transform="translate(-586.7 260.31) rotate(-45)"/><circle class="cls-3" cx="62.61" cy="838.37" r="7.26" transform="translate(-316.06 87.78) rotate(-22.5)"/><path class="cls-3" d="M111.61,838.37a7.27,7.27,0,1,1-7.26-7.27A7.26,7.26,0,0,1,111.61,838.37Z"/><path class="cls-3" d="M153.35,838.37a7.27,7.27,0,1,1-7.26-7.27A7.26,7.26,0,0,1,153.35,838.37Z"/><circle class="cls-3" cx="187.83" cy="838.37" r="7.26" transform="translate(-307.82 136.61) rotate(-22.61)"/><circle class="cls-3" cx="229.57" cy="838.37" r="7.26" transform="translate(-304.62 152.65) rotate(-22.61)"/><path class="cls-3" d="M278.57,838.37a7.27,7.27,0,1,1-7.27-7.27A7.26,7.26,0,0,1,278.57,838.37Z"/><circle class="cls-3" cx="313.04" cy="838.37" r="7.26" transform="translate(-501.13 466.91) rotate(-45)"/><circle class="cls-3" cx="354.78" cy="838.37" r="7.26" transform="translate(-280.81 186.63) rotate(-21.34)"/><circle class="cls-3" cx="396.52" cy="838.37" r="7.26" transform="translate(-510.38 1032.33) rotate(-76.76)"/><circle class="cls-3" cx="438.26" cy="838.37" r="7.26" transform="translate(-464.45 555.45) rotate(-45)"/><circle class="cls-3" cx="480" cy="838.37" r="7.26" transform="translate(-252.29 208.27) rotate(-19.5)"/><circle class="cls-3" cx="521.74" cy="838.37" r="7.26" transform="translate(-413.84 1154.22) rotate(-76.76)"/><circle class="cls-3" cx="563.48" cy="838.37" r="7.26" transform="translate(-427.78 643.99) rotate(-45)"/><circle class="cls-3" cx="605.22" cy="838.37" r="7.26" transform="translate(-344.11 428.58) rotate(-30.83)"/><circle class="cls-3" cx="646.96" cy="838.37" r="7.26" transform="translate(-317.3 1276.11) rotate(-76.76)"/><circle class="cls-3" cx="688.7" cy="838.37" r="7.26" transform="translate(-378.52 642.89) rotate(-40.22)"/><circle class="cls-3" cx="730.43" cy="838.37" r="7.26" transform="translate(-378.88 762.05) rotate(-45)"/><circle class="cls-3" cx="772.17" cy="838.37" r="7.26" transform="translate(-262.93 361.22) rotate(-22.61)"/><circle class="cls-3" cx="813.91" cy="838.37" r="7.26" transform="translate(-216.65 1389.05) rotate(-73.97)"/><circle class="cls-3" cx="855.65" cy="838.37" r="7.26" transform="translate(-342.2 850.59) rotate(-45)"/><circle class="cls-3" cx="897.39" cy="838.37" r="7.26" transform="translate(-253.31 409.35) rotate(-22.61)"/><circle class="cls-3" cx="939.13" cy="838.37" r="7.26" transform="translate(-92.05 1560.51) rotate(-76.76)"/><circle class="cls-3" cy="870" r="7.26" transform="matrix(0.63, -0.77, 0.77, 0.63, -672.81, 318.43)"/><circle class="cls-3" cx="41.74" cy="870" r="7.26" transform="translate(-814.58 710.74) rotate(-76.72)"/><circle class="cls-3" cx="83.48" cy="870" r="7.26" transform="translate(-590.73 313.85) rotate(-45)"/><circle class="cls-3" cx="125.22" cy="870" r="7.26" transform="translate(-342.45 125.78) rotate(-23.95)"/><circle class="cls-3" cx="166.96" cy="870" r="7.26" transform="translate(-718.16 833.26) rotate(-76.76)"/><circle class="cls-3" cx="208.7" cy="870" r="7.26" transform="translate(-542.82 384.53) rotate(-43.65)"/><circle class="cls-3" cx="250.43" cy="870" r="7.26" transform="translate(-315.17 163.1) rotate(-22.61)"/><circle class="cls-3" cx="292.17" cy="870" r="7.26" transform="translate(-311.97 179.15) rotate(-22.61)"/><circle class="cls-3" cx="333.91" cy="870" r="7.26" transform="translate(-591.55 979.16) rotate(-75.73)"/><circle class="cls-3" cx="375.65" cy="870" r="7.26" transform="translate(-505.16 520.44) rotate(-45)"/><circle class="cls-3" cx="417.39" cy="870" r="7.26" transform="translate(-302.35 227.28) rotate(-22.61)"/><circle class="cls-3" cx="459.13" cy="870" r="7.26" transform="translate(-492.9 1117.66) rotate(-76.76)"/><circle class="cls-3" cx="500.87" cy="870" r="7.26" transform="translate(-468.48 608.99) rotate(-45)"/><circle class="cls-3" cx="542.61" cy="870" r="7.26" transform="translate(-292.73 275.41) rotate(-22.61)"/><circle class="cls-3" cx="584.35" cy="870" r="7.26" transform="translate(-396.37 1239.55) rotate(-76.76)"/><path class="cls-3" d="M633.35,870a7.27,7.27,0,1,1-7.26-7.26A7.27,7.27,0,0,1,633.35,870Z"/><circle class="cls-3" cx="667.83" cy="870" r="7.26" transform="translate(-283.11 323.54) rotate(-22.61)"/><circle class="cls-3" cx="709.57" cy="870" r="7.26" transform="translate(-279.9 339.58) rotate(-22.61)"/><path class="cls-3" d="M758.57,870a7.27,7.27,0,1,1-7.27-7.26A7.27,7.27,0,0,1,758.57,870Z"/><circle class="cls-3" cx="793.04" cy="870" r="7.26" transform="translate(-382.91 815.58) rotate(-45)"/><circle class="cls-3" cx="834.78" cy="870" r="7.26" transform="translate(-245.72 334.96) rotate(-19.84)"/><circle class="cls-3" cx="876.52" cy="870" r="7.26" transform="translate(-171.11 1523.96) rotate(-76.76)"/><circle class="cls-3" cx="918.26" cy="870" r="7.26" transform="translate(-346.23 904.13) rotate(-45)"/><circle class="cls-3" cx="960" cy="870" r="7.26" transform="translate(-212.84 319.59) rotate(-17.04)"/><circle class="cls-3" cx="20.87" cy="905.29" r="7.26" transform="translate(-634.02 279.91) rotate(-45)"/><circle class="cls-3" cx="62.61" cy="905.29" r="7.26" transform="translate(-341.67 92.87) rotate(-22.5)"/><path class="cls-3" d="M111.61,905.29a7.27,7.27,0,1,1-7.26-7.26A7.26,7.26,0,0,1,111.61,905.29Z"/><path class="cls-3" d="M153.35,905.29a7.27,7.27,0,1,1-7.26-7.26A7.26,7.26,0,0,1,153.35,905.29Z"/><circle class="cls-3" cx="187.83" cy="905.29" r="7.26" transform="translate(-333.55 141.75) rotate(-22.61)"/><circle class="cls-3" cx="229.57" cy="905.29" r="7.26" transform="translate(-330.34 157.79) rotate(-22.61)"/><path class="cls-3" d="M278.57,905.29A7.27,7.27,0,1,1,271.3,898,7.26,7.26,0,0,1,278.57,905.29Z"/><circle class="cls-3" cx="313.04" cy="905.29" r="7.26" transform="translate(-548.45 486.51) rotate(-45)"/><circle class="cls-3" cx="354.78" cy="905.29" r="7.26" transform="translate(-305.17 191.22) rotate(-21.34)"/><circle class="cls-3" cx="396.52" cy="905.29" r="7.26" transform="translate(-575.52 1083.92) rotate(-76.76)"/><circle class="cls-3" cx="438.26" cy="905.29" r="7.26" transform="translate(-511.77 575.05) rotate(-45)"/><circle class="cls-3" cx="480" cy="905.29" r="7.26" transform="translate(-274.62 212.11) rotate(-19.5)"/><circle class="cls-3" cx="521.74" cy="905.29" r="7.26" transform="translate(-478.98 1205.81) rotate(-76.76)"/><circle class="cls-3" cx="563.48" cy="905.29" r="7.26" transform="translate(-475.1 663.59) rotate(-45)"/><circle class="cls-3" cx="605.22" cy="905.29" r="7.26" transform="translate(-378.4 438.04) rotate(-30.83)"/><circle class="cls-3" cx="646.96" cy="905.29" r="7.26" transform="translate(-382.45 1327.7) rotate(-76.76)"/><circle class="cls-3" cx="688.7" cy="905.29" r="7.26" transform="translate(-421.73 658.72) rotate(-40.22)"/><circle class="cls-3" cx="730.43" cy="905.29" r="7.26" transform="translate(-426.2 781.65) rotate(-45)"/><circle class="cls-3" cx="772.17" cy="905.29" r="7.26" transform="translate(-288.66 366.36) rotate(-22.61)"/><circle class="cls-3" cx="813.91" cy="905.29" r="7.26" transform="translate(-280.97 1437.49) rotate(-73.97)"/><circle class="cls-3" cx="855.65" cy="905.29" r="7.26" transform="translate(-389.52 870.19) rotate(-45)"/><circle class="cls-3" cx="897.39" cy="905.29" r="7.26" transform="translate(-279.04 414.49) rotate(-22.61)"/><circle class="cls-3" cx="939.13" cy="905.29" r="7.26" transform="translate(-157.19 1612.11) rotate(-76.76)"/><circle class="cls-3" cy="936.92" r="7.26" transform="matrix(0.63, -0.77, 0.77, 0.63, -724.56, 342.92)"/><circle class="cls-3" cx="41.74" cy="936.92" r="7.26" transform="translate(-879.71 762.29) rotate(-76.72)"/><circle class="cls-3" cx="83.48" cy="936.92" r="7.26" transform="translate(-638.06 333.45) rotate(-45)"/><circle class="cls-3" cx="125.22" cy="936.92" r="7.26" transform="translate(-369.62 131.54) rotate(-23.95)"/><circle class="cls-3" cx="166.96" cy="936.92" r="7.26" transform="translate(-783.3 884.85) rotate(-76.76)"/><circle class="cls-3" cx="208.7" cy="936.92" r="7.26" transform="translate(-589.01 403.02) rotate(-43.65)"/><circle class="cls-3" cx="250.43" cy="936.92" r="7.26" transform="translate(-340.9 168.24) rotate(-22.61)"/><circle class="cls-3" cx="292.17" cy="936.92" r="7.26" transform="translate(-337.69 184.29) rotate(-22.61)"/><circle class="cls-3" cx="333.91" cy="936.92" r="7.26" transform="translate(-656.41 1029.58) rotate(-75.73)"/><circle class="cls-3" cx="375.65" cy="936.92" r="7.26" transform="translate(-552.48 540.05) rotate(-45)"/><circle class="cls-3" cx="417.39" cy="936.92" r="7.26" transform="translate(-328.07 232.42) rotate(-22.61)"/><circle class="cls-3" cx="459.13" cy="936.92" r="7.26" transform="translate(-558.05 1169.26) rotate(-76.76)"/><circle class="cls-3" cx="500.87" cy="936.92" r="7.26" transform="translate(-515.8 628.59) rotate(-45)"/><circle class="cls-3" cx="542.61" cy="936.92" r="7.26" transform="translate(-318.45 280.55) rotate(-22.61)"/><circle class="cls-3" cx="584.35" cy="936.92" r="7.26" transform="translate(-461.51 1291.15) rotate(-76.76)"/><path class="cls-3" d="M633.35,936.92a7.27,7.27,0,1,1-7.26-7.26A7.26,7.26,0,0,1,633.35,936.92Z"/><circle class="cls-3" cx="667.83" cy="936.92" r="7.26" transform="translate(-308.83 328.68) rotate(-22.61)"/><circle class="cls-3" cx="709.57" cy="936.92" r="7.26" transform="translate(-305.63 344.73) rotate(-22.61)"/><path class="cls-3" d="M758.57,936.92a7.27,7.27,0,1,1-7.27-7.26A7.26,7.26,0,0,1,758.57,936.92Z"/><circle class="cls-3" cx="793.04" cy="936.92" r="7.26" transform="translate(-430.23 835.19) rotate(-45)"/><circle class="cls-3" cx="834.78" cy="936.92" r="7.26" transform="translate(-268.44 338.93) rotate(-19.84)"/><circle class="cls-3" cx="876.52" cy="936.92" r="7.26" transform="translate(-236.25 1575.55) rotate(-76.76)"/><circle class="cls-3" cx="918.26" cy="936.92" r="7.26" transform="translate(-393.55 923.73) rotate(-45)"/><circle class="cls-3" cx="960" cy="936.92" r="7.26" transform="translate(-232.45 322.53) rotate(-17.04)"/></g></g></svg>
